<?xml version="1.0" encoding="UTF-8" standalone="no"?>
<!-- Created with Inkscape (http://www.inkscape.org/) -->

<svg
   version="1.1"
   id="svg3713"
   width="1257.6"
   height="875.52002"
   viewBox="0 0 1257.6 875.52002"
   sodipodi:docname="female-fb.svg"
   inkscape:version="1.3 (0e150ed, 2023-07-21)"
   inkscape:export-filename="../../../Documents/female-fb.svg"
   inkscape:export-xdpi="96"
   inkscape:export-ydpi="96"
   xmlns:inkscape="http://www.inkscape.org/namespaces/inkscape"
   xmlns:sodipodi="http://sodipodi.sourceforge.net/DTD/sodipodi-0.dtd"
   xmlns="http://www.w3.org/2000/svg"
   xmlns:svg="http://www.w3.org/2000/svg"
   xmlns:rdf="http://www.w3.org/1999/02/22-rdf-syntax-ns#"
   xmlns:cc="http://creativecommons.org/ns#"
   xmlns:dc="http://purl.org/dc/elements/1.1/">
  <metadata
     id="metadata3719">
    <rdf:RDF>
      <cc:Work
         rdf:about="">
        <dc:format>image/svg+xml</dc:format>
        <dc:type
           rdf:resource="http://purl.org/dc/dcmitype/StillImage" />
        <dc:title />
      </cc:Work>
    </rdf:RDF>
  </metadata>
  <defs
     id="defs3717" />
  <sodipodi:namedview
     pagecolor="#ffffff"
     bordercolor="#666666"
     borderopacity="1"
     objecttolerance="10"
     gridtolerance="10"
     guidetolerance="10"
     inkscape:pageopacity="0"
     inkscape:pageshadow="2"
     inkscape:window-width="1712"
     inkscape:window-height="968"
     id="namedview3715"
     showgrid="false"
     inkscape:zoom="0.69805702"
     inkscape:cx="509.98699"
     inkscape:cy="583.7632"
     inkscape:window-x="0"
     inkscape:window-y="39"
     inkscape:window-maximized="0"
     inkscape:current-layer="svg3713"
     inkscape:showpageshadow="0"
     inkscape:pagecheckerboard="0"
     inkscape:deskcolor="#d1d1d1" />
  <path
     style="fill:#000000;fill-opacity:1;stroke:#000000;stroke-width:0.32;stroke-opacity:1"
     d="m 568.90245,709.46861 c 26.5203,0.20293 46.74639,7.25282 70.18299,-2.35362 4.19732,-1.72044 63.31749,-13.06703 87.87621,-36.86948 10.65048,-10.32251 25.45737,-49.91548 12.74928,-44.59762 -22.60518,38.71078 -11.53615,-16.11624 -14.95296,-25.07661 -47.62604,-14.65324 -96.97396,-24.52024 -146.40236,-30.84218 -34.25383,-10.2601 -14.69246,61.93572 -31.80132,20.97558 -11.84536,-28.35884 -24.13545,18.25179 -4.62759,41.28973 15.82696,18.69096 48.39335,16.12107 59.44481,18.99015 20.41484,5.29993 69.55422,36.11528 31.54788,27.0799 -25.68974,-6.10731 -46.46996,-7.44156 -69.55655,-15.66045 -23.92338,-8.5168 -52.13744,-22.58522 -49.35158,-53.22918 -4.89156,-22.94381 14.44404,-39.06708 32.74454,-45.78915 -14.14803,2.58195 -37.72009,-25.14896 -42.34507,-14.38785 -5.05062,32.63464 -3.57473,67.42498 -15.93109,98.43076 -14.34527,-29.17944 0.59127,-75.09052 0.68035,-110.34701 5.46873,-16.24243 -14.7654,-34.37508 -1.73279,-51.55236 26.84517,-7.27935 18.96335,-26.41093 7.92416,-38.72826 -7.94726,18.05451 -43.60037,30.15302 -42.37507,44.40723 -5.75762,21.02062 -18.49198,41.20678 -28.30042,61.07776 -17.91903,2.74761 0.32687,-34.40283 4.56858,-45.4594 15.47884,-25.16831 -33.42609,10.383 -50.16006,2.67537 -23.60958,5.78963 -93.44984,-13.02493 -31.51575,-10.07911 58.30973,6.42977 112.55976,-28.41122 145.04749,-74.56777 16.65714,-16.06142 25.65925,-44.43311 52.62134,-51.28976 16.70704,-5.08858 -17.82434,-34.44145 1.0384,-51.45848 21.18674,-21.27986 10.61684,-15.0724 -1.66902,-22.6238 31.37607,-16.98806 65.1772,-31.67547 93.53686,-53.17076 -10.62836,-15.43823 2.69415,-72.60696 9.13994,-28.90007 -5.04754,32.64181 29.24162,43.92358 51.95219,55.6128 26.87406,14.86956 60.07201,8.23115 89.14651,17.90452 19.77785,4.16774 42.46416,-6.50584 8.6135,-7.6456 -35.84956,2.86989 -54.31527,-37.07644 -27.7535,-55.54886 -39.56354,-26.23668 -69.10819,-64.55885 -99.51505,-99.68 -26.69572,-21.58168 -55.31876,3.04043 -78.33146,16.96488 -64.88808,35.00693 -134.01666,61.16993 -203.2,85.92743 -15.34485,13.58359 -30.99575,28.56281 -48.27238,40.91818 -56.57602,42.77116 -98.67994,104.91327 -164.09451,135.41482 -31.13236,11.57101 -61.37914,25.69097 -93.233113,35.65207 -5.825304,-21.61104 25.382373,-17.06666 37.523583,-26.23737 30.26936,-13.72934 63.43677,-21.22658 89.25114,-43.10961 53.95779,-43.99503 100.51108,-96.62249 156.95584,-137.81128 20.86477,-28.67802 62.08316,-25.89246 90.41338,-42.75925 58.79742,-22.70863 115.42913,-49.60511 168.89616,-81.27558 45.8975,-18.69341 68.3453,33.78233 96.00646,59.03181 22.28554,22.08733 50.92888,50.35531 75.75315,61.0508 35.44516,-0.7304 89.86413,49.48353 31.4404,59.67929 -34.97854,15.21961 1.68852,20.10173 9.28,39.80016 12.34511,30.39946 -16.93669,50.12736 -41.3371,59.19615 25.18295,-6.50183 62.50959,-45.18123 100.3771,-26.39306 41.30368,15.31914 85.62883,3.11735 127.67995,16.74231 46.9955,2.01349 46.9546,65.5946 90.72,62.24605 24.943,3.79062 48.9862,11.52772 72.96,19.13603 -2.4015,26.45109 -47.0867,-9.9405 -68.32,-6.65562 -36.501,2.75895 -48.3466,-14.77901 -62.1808,-42.9255 -34.1984,-30.3076 -84.01896,-30.07254 -126.94595,-28.12915 -37.39489,-12.86451 -82.82985,-21.98162 -113.03564,11.34432 -17.68526,11.81452 7.67961,36.94134 -8.71756,56.832 -0.73131,21.60706 -20.82149,36.77902 -6.72,58.48589 -24.70524,27.37356 6.1288,74.85462 39.699,71.28087 38.96252,-1.26341 89.24733,-2.1156 116.2303,-32.00676 -8.94631,-39.97106 -60.96622,-26.36297 -91.3423,-32.13292 -16.90754,1.95393 -64.16244,-8.09803 -20.7471,-5.43985 25.23353,-5.86371 76.98091,24.22808 78.44158,-16.73117 -6.87788,22.3211 -0.01,27.50717 25.88542,21.3088 30.94285,-33.08548 -61.26599,-12.31903 -44.54007,-58.59248 -7.02814,-27.7981 -59.84846,-17.54302 -84.50803,-23.87277 12.67867,-8.07747 63.29128,1.8858 87.1249,10.93566 19.05745,-28.28744 15.90767,-50.8718 -16.2461,-61.55526 26.16203,16.35607 39.94508,29.99872 64.4415,4.46512 -8.42642,12.69732 -46.52637,37.51743 -45.6559,68.33488 -3.69276,53.11417 71.40534,40.85252 86.81754,3.21163 16.66581,-41.22494 -2.14183,30.03976 29.62411,9.34696 37.8102,-2.60612 -46.82156,8.01334 -39.05845,8.14506 -28.72961,6.98292 -19.54246,40.72064 -42.5819,46.20534 20.18252,18.3946 23.22096,43.62159 37.5186,67.18566 -19.97469,25.23033 -64.91787,58.72439 -96.29969,39.50577 -24.68192,-48.71735 3.52545,22.22146 28.69109,-0.0279 30.45176,-7.97655 89.40545,-40.38383 43.7888,-70.06781 -37.92707,22.25176 -82.21586,26.36637 -125.2382,26.41687 -4.30194,41.89765 45.63555,65.7967 81.2373,55.02853 34.70165,-1.48472 68.85198,-7.33176 104.06545,-2.3327 50.7877,25.85073 103.6586,52.2835 160.4179,61.09298 27.0225,9.32357 -17.339,15.64947 -30.4111,6.0467 -47.33,-13.41464 -92.8262,-34.52531 -136.3285,-56.217 -42.53359,-5.29162 -83.66545,4.7232 -126.07145,4.80904 -35.87011,-0.95954 -63.24155,-33.84609 -68.6799,-64.91011 -26.28151,-10.58981 -33.81126,-59.61314 -45.54637,-14.15195 -13.34106,21.14191 -52.56571,28.3651 -19.37374,42.93605 10.62897,26.49806 -9.64803,51.00587 -27.79213,67.66557 -26.31719,12.90154 -52.00252,26.63242 -79.41706,35.8669 -26.98376,9.08937 -45.8689,3.15169 -72.15081,0.7771 -38.52847,-3.48108 -71.8824,-5.48686 -112.28343,-7.94561 -54.11337,-3.29326 -108.64661,-10.79437 -162.59657,-1.78309 -25.50982,11.69476 -55.78676,3.67507 -82.56,14.0648 -45.1647,9.54909 -90.06384,20.44465 -134.160013,34.1665 -6.37135,-20.29059 22.584913,-15.59847 34.645203,-22.3335 48.78511,-12.54606 98.08064,-25.42963 148.02747,-31.47394 39.7149,-6.96068 81.41742,-13.01378 122.62648,-7.79706 40.1073,2.67043 78.55152,6.80306 118.55424,7.51052 34.36753,0.6078 32.08249,1.123 62.05843,1.35238 z M 736.0413,593.57579 c 16.99255,-5.38207 31.60849,-16.89767 34.1846,-35.35565 3.43787,-11.71418 10.83256,-25.31152 -2.3312,-34.36317 -4.56433,-9.99313 -6.57705,58.0068 -18.22709,17.63882 7.26307,-31.86908 -11.34834,-40.16619 -38.75178,-42.40506 -65.18215,-12.95724 -132.30241,-18.75852 -198.1689,-21.55267 -32.71113,8.86482 -13.3846,52.03974 8.21252,62.19773 39.99827,20.57507 87.20029,18.02162 130.27888,28.64 28.71709,6.21365 58.58111,11.47586 84.80297,25.2 z m 48.0819,-71.34986 c 14.57877,-27.75194 -5.11899,-33.17505 -24.72737,-13.53014 11.93196,-3.8854 19.675,13.38425 24.72737,13.53014 z m -24.40737,-26.49014 c 15.58012,-10.73467 35.40066,-21.31691 35.62777,-42.72 4.54779,-17.48648 10.41492,-36.04891 -4.5878,-50.65677 -4.07005,5.39199 -2.41223,36.68204 -12.4407,50.17677 -22.8565,17.48065 -0.29986,-39.22256 -5.4499,-52.64 -24.20348,-16.2689 -72.07485,-6.16855 -104.9391,-9.56874 -37.35547,2.69632 -72.60422,-13.62728 -109.87333,-8.79663 -20.07165,7.13365 -58.85328,24.30006 -47.80224,49.54512 -0.93021,29.68737 21.94604,47.93519 50.60398,38.99078 66.10457,1.77226 133.22318,8.13222 196.67115,27.2437 l 2.19001,-1.57328 z m 13.43997,-87.68 c -0.78924,-1.13994 -0.38696,1.16998 0,0 z m -141.43997,-20.16 c -0.81758,-1.14798 -0.81758,1.14798 0,0 z m 148.47997,-2.56685 c 19.43738,-11.43146 56.30731,-18.14933 47.2934,-48.47315 -3.41803,-27.27533 -22.9248,21.76379 -21.0661,-15.4993 -0.33507,-22.17362 -26.78991,-16.07287 -41.3448,-21.61271 -50.25123,-8.93056 -102.07374,-9.88741 -152.56218,-2.3775 27.38572,11.69223 -5.23312,18.38364 -17.44,9.08582 -25.17997,-12.02936 -31.58295,4.77069 -36.95519,26.25969 -8.39521,34.72394 29.80142,40.11594 55.17626,40.46998 54.94969,10.04979 113.15365,-3.79843 166.89861,12.14717 z M 589.31578,291.9418 c 30.05328,-8.12908 61.32512,-11.71427 92.38272,-12.14118 -19.0662,-8.36168 -35.72402,-32.19121 -53.40707,-9.01945 -10.78438,6.93091 -35.00153,18.89355 -38.97565,21.16063 z m 243.65807,-13.17378 c 32.02809,-17.0196 -48.01926,-47.12226 -62.6222,-35.83264 -25.65352,30.56066 46.08784,36.80208 62.6222,35.83264 z M 1009.66,624.56467 c 4.048,-18.32769 10.1829,-68.14838 7.6142,-19.8871 -2.5466,4.01479 -0.5835,20.44173 -7.6142,19.8871 z m -67.54425,-8.39299 c -13.69026,-19.33934 -13.54619,-32.28347 0.44647,-6.33827 12.19959,0.48702 0.33976,12.79358 -0.44647,6.33827 z m 124.53635,-20.80419 c 13.2382,-15.09115 14.1081,-64.8297 -18.5014,-39.36903 -27.3636,-5.6274 35.1965,-13.97403 33.5427,-39.89574 5.4624,-15.07947 -11.9485,-68.93895 6.9304,-27.88733 11.9489,31.41504 -25.9462,52.59169 -5.3959,81.61948 0.034,11.02314 -8.8434,20.64049 -16.5758,25.53262 z M 141.15578,589.12 c -29.07105,-4.26435 12.13124,-14.10647 23.36,-13.44987 23.23215,-10.9972 50.97198,13.60234 10.23757,12.38157 -11.19388,0.69526 -22.39715,1.17913 -33.59757,1.0683 z m 790.90397,-26.90461 c -4.02927,-17.84382 -22.36384,-46.445 1.0557,-16.01139 1.09636,2.12538 7.86219,20.55082 -1.0557,16.01139 z m 15.9193,-77.38502 c -64.48988,-9.71495 -1.51389,-75.47705 22.2965,-19.08641 -3.65842,8.60572 -11.03353,20.93651 -22.2965,19.08641 z m 7.2092,-4.45546 c 41.26346,-31.09226 -63.0476,-47.15044 -22.52648,-5.06327 6.46054,3.96535 14.87302,8.25061 22.52648,5.06327 z m 30.5891,-34.15952 c -8.94398,-18.72176 -68.64901,-40.36927 -20.1538,-22.11498 5.28101,3.00221 27.41895,17.04251 20.1538,22.11498 z"
     id="path3723"
     inkscape:connector-curvature="0"
     sodipodi:nodetypes="sssccsssssssscscsssscscscscssscssssssssssssscsssssssssssssssssssssssssssssssssssssssssssssssssssssssssssssssssssssssssssssssssssssssssssssssssssscscsssssssssssssssssssssssss" />
</svg>
