<?xml version="1.0" encoding="utf-8"?>
<!-- Generator: Adobe Illustrator 16.0.0, SVG Export Plug-In . SVG Version: 6.00 Build 0)  -->
<!DOCTYPE svg PUBLIC "-//W3C//DTD SVG 1.1//EN" "http://www.w3.org/Graphics/SVG/1.1/DTD/svg11.dtd">
<svg version="1.1" id="Layer_1" xmlns="http://www.w3.org/2000/svg" xmlns:xlink="http://www.w3.org/1999/xlink" x="0px" y="0px"
	 width="595.2803px" height="841.8896px" viewBox="0 0 595.2803 841.8896" enable-background="new 0 0 595.2803 841.8896"
	 xml:space="preserve">
<g>
	<path fill-rule="evenodd" clip-rule="evenodd" d="M410.8164,539.8135c9.4971-2.0342,12.1924-30.8184,15.0947-52.4248
		c4.5234-33.7051,4.1309-72.5024-19.0244-110.0913c-2.9531-4.7974-6.0518-9.9302-9.2021-15.3574
		c-24.0176-44.0493-18.9521-59.9854-25.541-106.6216c-1.0693-9.3877-4.2188-22.9229-7.0029-33.127
		c-3.8467-14.103-8.1279-26.9971-16.4102-36.3081c-18.6016-20.9297-55.0591-19.3647-71.5479,3.6045
		c-8.5313,11.8877-9.8296,27.6738-11.6294,41.5083c-1.8174,22.2671,0.5576,56.9692,16.8164,72.3423
		c6.4243,24.6431,14.1343,29.9775,18.6138,40.5688c-3.9736,9.9819-28.8872,12.063-35.4326,20.4341
		c0.2944,0.3662-15.9746-0.6353-25.4609,3.2427c-7.5708,3.0933-18.3921,8.2881-28.7896,12.4917
		c-15.1226,6.1143-17.9966,15.2031-20.4443,24.6787c-4.2656,16.52-5.1279,29.5278-4.3325,42.5151
		c-14.8232,13.3438-21.0229,27.4365-21.0229,42.6035c-0.0024,27.4619,10.3311,29.2021,11.8462,35.8271
		c4.0386,17.8369,0.3823,16.877,9.4683,40.8682c3.0264,9.1768,11.5161,24.1885,18.9028,37.2021
		c8.0044,14.1025,5.6343,25.7529,17.2402,38.2139c6.0522,6.501,12.4453,11.1074,20.8599,12.75
		c18.3813,3.5879,38.854,9.666,57.437,13.0078c5.9775,1.0684,11.3584,3.3818,17.4307,3.2578
		c7.9375,0.6455,16.0293-0.6973,26.832-2.1484c15.0273-2.0137,23.543-1.6514,30.1064-5.4004
		c11.3193-8.1133,20.9346-9.6055,28.9189-20.1563c7.9727-10.5449,8.7783-34.8516,1.6523-48.1748
		C414.0186,584.4209,418.6611,555.2852,410.8164,539.8135L410.8164,539.8135z M305.9717,352.9492
		c1.1729,8.2417,4.9678,17.5679,5.7734,21.4512c-10.3975-1.2236-24.8076-3.5732-36.1323-1.3423
		c2.4014,0.2788,7.5137,1.9209,7.5938,2.4834c-9.8066-0.4233-23.7183,1.5908-31.6938,5.4019c0,0,23.0054-3.2173,30.728-3.2173
		s32.8198,2.2515,47.6196,5.1484c13.1895,2.582,33.5146,7.457,51.6709,15.0845c8.5781,3.5991,10.1523,7.7612,14.4541,16.5815
		c8.1182,16.6489,8.6191,42.6597,0.4912,51.3511c-2.9229,3.8984-23.7861,2.3232-30.416,1.9258
		c1.6113-8.0449,2.416-48.2627-10.7773-65.9546c12.5537,37.646,5.4688,63.0679,3.2168,64.9937
		c-7.333,3.2539-37.6914-1.6631-56.6641-3.2939c-20.6924-2.8096-39.332-4.6221-51.6172-4.8906
		c29.6597,10.9268,61.7334,8.3398,91.1992,15.2129c10.6582,2.4893,39.4004-2.5967,49.3779,2.6445
		c13.9219,8.7988,17.8779,25.9746,6.7695,47.3691c-2.4678,4.751-3.8057,8.3652-8.9951,10.1426
		c-6.543,2.2354-18.3887,4.7402-20.4854,5.5977c-10.8506,4.4561-14.2842,5.4736-21.4209,6.3975
		c-13.3438,1.2188-42.9072-2.5508-48.7119-2.8604c-10.0361,0.377-25.9312-7.1787-35.4688-10.4834
		c-8.4692-2.9326-18.6704-4.3271-24.7925-6.8574c12.2358,9.585,45.3271,24.1982,60.519,22.3086
		c11.9912,1.1514,33.6445,3.6924,45.6963,3.8105c7.6426-1.0635,20.5889-3.6299,32.6572-7.0225
		c8.2529-2.3242,16.1436-4.1006,20.2119-9.0479c8.2109,8.9189,12.9678,25.5469,9.6152,40.8213
		c-2.7725,12.6631-15.8018,22.6807-28.6338,26.8896c0.749-10.5498,0.4385-17.2432-3.4961-26.5166
		c1.7246,10.957,4.0225,15.6826,0.3867,27.5596c-2.0342,0.5059-5.4326,1.6836-7.5029,1.8691
		c-5.1533,0.4707-11.3965,0.9346-18.208,1.3271c-22.2363,1.2969-47.6016-1.0332-63.4272-3.5527
		c-12.0161-3.542-24.5981-5.8047-36.9922-8.1074c11.0767,3.5215,16.938,7.1777,27.9141,10.3027
		c14.4644,4.1201,39.5386,8.9951,70.9556,7.3369c9.125-0.4795,12.4561,0.7441,20.8223-0.2266
		c10.1006-1.1768,28.918-8.0352,33.3848-12.125c6.2227,22.8818,2.0293,37.165-16.3652,48.0146
		c0.5996-6.0518-1.6211-20.1807-3.6143-25.0869c2.1787,11.2686,1.3223,25.5781-9.3262,32.9521
		c-3.4648,1.8428-21.0225,2.3545-28.252-0.2637c6.4395,4.0693,12.2129,4.2139,18.668,3.7334
		c-4.416,1.2295-6.4189,0.7998-16.1738,2.1074c-16.0811,2.1533-28.0723,2.417-43.1924-1.5088
		c-3.71-0.9648-21.2959-9.4033-26.9814-15.8164c0.4131,4.4512,4.1079,8.8818,3.5762,8.9385
		c-26.9121-6.5684-25.1104-5.5723-32.771-7.7568c-7.6968-1.502-15.3604-5.3799-20.5605-11.252
		c-2.5405-2.8604-4.0044-6.5684-5.5459-9.9922c-3.4189-7.6172-3.584-15.6523-6.667-23.0361
		c1.1465,0.6348,10.5708,3.4541,11.6836,3.666c-29.2563-18.1982-42.874-51.5625-40.1011-80.7598
		c1.9985,0.5889,25.6343,6.2793,29.564,5.4063c-16.8989-5.5254-32.8608-13.2715-38.5-21.5488
		c-2.9746-3.5273-5.3784-8.9023-5.3784-19.9697c0-10.9883,3.8315-18.9258,8.8384-25.1846
		c13.6045-17.0156,14.5728-10.0127,36.0913-10.0957c-27.6665-3.9189-27.0625-28.1543-18.3301-50.8604
		c1.6113-4.188,9.6543-12.874,16.7339-15.7656c7.0801-2.9023,18.3403,0,24.7769,1.2856c6.437,1.2861,44.4028,4.1831,44.4028,4.1831
		s14.1597-1.291-6.1113-3.2173c-20.2715-1.9312-47.9014-10.4209-47.9014-10.4209s12.8271-7.6016,23.7671-8.2471
		c6.4214-0.3716,12.5742-0.0049,18.1567,1.0327C280.1855,367.3774,295.6748,357.7158,305.9717,352.9492L305.9717,352.9492z
		 M313.2734,374.7466c-0.124-2.6128-1.4766-10.9219-2.7051-17.8833c-1.3848-7.854-2.7168-13.292-6.7031-20.2944
		c-5.2705-9.2744-11.666-17.5679-13.543-30.5552c2.8145,2.1636,13.0781,5.6392,21.5781,0.8364
		c-6.915,2.2153-24.1133-4.291-25.0225-8.0405c-10.5679-12.3364-15.4946-40.186-14.418-63.6357
		c0.6045-13.1528,3.2637-25.7939,6.8267-33.979c11.1987-25.7271,43.7368-27.9893,62.0278-13.3594
		c15.5742,12.4453,23.0732,71.377,27.0283,90.8037c-0.3252,9.3315-4.8955,17.0571-8.7578,20.2739
		c-3.8633,3.2173-13.1943,8.3657-13.1943,8.3657c7.4004-1.7144,16.6123-4.5234,23.1602-8.8149
		c0.2383,24.085,16.3701,52.1406,26.167,74.3047c-1.4307,3.0571-7.6797,3.2896-14.4854,4.9473
		c8.4893,2.2827,11.5566,0.4751,16.3027-0.5215c11.9961,22.2412,22.2002,42.4067,23.7383,62.252
		c0.5225,6.7754-1.4453,17.6143-1.833,24.6787c-0.2627,4.71-4.2598,19.9697-10.5088,28.6709
		c-0.6563-8.9912-2.7471-14.7178-7.3584-20.1914c12.8633-21.0996,9.3516-58.6167-10.751-74.4497
		c-13.623-10.7305-32.2607-14.2681-48.5576-18.4868C332.5508,377.1528,323.2451,375.9292,313.2734,374.7466L313.2734,374.7466z
		 M409.0869,496.7559c2.623-0.6865,6.2383-2.6748,8.8096-6.1963c-0.9395,6.5068,0.0566,18.4814-2.334,28.3555
		c-1.8691,7.6738-5.9082,14.2012-13.6953,15.0742c-0.6191-0.5635-1.2705-1.1162-1.9414-1.6582
		C404.9453,526.2432,409.2002,510.6943,409.0869,496.7559L409.0869,496.7559z"/>
</g>
</svg>
